<mxfile host="app.diagrams.net" modified="2023-10-16T14:06:16.433Z" agent="Mozilla/5.0 (Windows NT 10.0; Win64; x64) AppleWebKit/537.36 (KHTML, like Gecko) Chrome/117.0.0.0 Safari/537.36" version="22.0.0" etag="wGej1dawC9ZH-NrjapR4" type="github">
  <diagram name="Страница — 1" id="6FGtOWiIRYftURZ7Sjmn">
    <mxGraphModel>
      <root>
        <mxCell id="0" />
        <mxCell id="1" parent="0" />
      </root>
    </mxGraphModel>
  </diagram>
</mxfile>
